<?xml version="1.0" encoding="utf-8" standalone="no"?>
<!DOCTYPE svg PUBLIC "-//W3C//DTD SVG 1.1//EN"
  "http://www.w3.org/Graphics/SVG/1.1/DTD/svg11.dtd">
<!-- Created with matplotlib (https://matplotlib.org/) -->
<svg height="393pt" version="1.1" viewBox="0 0 566 393" width="566pt" xmlns="http://www.w3.org/2000/svg" xmlns:xlink="http://www.w3.org/1999/xlink">
 <defs>
  <style type="text/css">
*{stroke-linecap:butt;stroke-linejoin:round;}
  </style>
 </defs>
 <g id="figure_1">
  <g id="patch_1">
   <path d="M 0 393 
L 566 393 
L 566 0 
L 0 0 
z
" style="fill:#ffffff;"/>
  </g>
  <g id="axes_1">
   <g id="patch_2">
    <path d="M 46.13875 349.908125 
L 555.2 349.908125 
L 555.2 10.8 
L 46.13875 10.8 
z
" style="fill:#e5e5e5;"/>
   </g>
   <g id="matplotlib.axis_1">
    <g id="xtick_1">
     <g id="line2d_1">
      <path clip-path="url(#p53877a6aad)" d="M 49.224403 349.908125 
L 49.224403 10.8 
" style="fill:none;stroke:#ffffff;stroke-linecap:square;stroke-width:0.8;"/>
     </g>
     <g id="line2d_2">
      <defs>
       <path d="M 0 0 
L 0 3.5 
" id="me1437832af" style="stroke:#555555;stroke-width:0.8;"/>
      </defs>
      <g>
       <use style="fill:#555555;stroke:#555555;stroke-width:0.8;" x="49.224403" xlink:href="#me1437832af" y="349.908125"/>
      </g>
     </g>
     <g id="text_1">
      <!-- 1 -->
      <defs>
       <path d="M 12.40625 8.296875 
L 28.515625 8.296875 
L 28.515625 63.921875 
L 10.984375 60.40625 
L 10.984375 69.390625 
L 28.421875 72.90625 
L 38.28125 72.90625 
L 38.28125 8.296875 
L 54.390625 8.296875 
L 54.390625 0 
L 12.40625 0 
z
" id="DejaVuSans-49"/>
      </defs>
      <g style="fill:#555555;" transform="translate(46.043153 364.506562)scale(0.1 -0.1)">
       <use xlink:href="#DejaVuSans-49"/>
      </g>
     </g>
    </g>
    <g id="xtick_2">
     <g id="line2d_3">
      <path clip-path="url(#p53877a6aad)" d="M 122.425268 349.908125 
L 122.425268 10.8 
" style="fill:none;stroke:#ffffff;stroke-linecap:square;stroke-width:0.8;"/>
     </g>
     <g id="line2d_4">
      <g>
       <use style="fill:#555555;stroke:#555555;stroke-width:0.8;" x="122.425268" xlink:href="#me1437832af" y="349.908125"/>
      </g>
     </g>
     <g id="text_2">
      <!-- 2 -->
      <defs>
       <path d="M 19.1875 8.296875 
L 53.609375 8.296875 
L 53.609375 0 
L 7.328125 0 
L 7.328125 8.296875 
Q 12.9375 14.109375 22.625 23.890625 
Q 32.328125 33.6875 34.8125 36.53125 
Q 39.546875 41.84375 41.421875 45.53125 
Q 43.3125 49.21875 43.3125 52.78125 
Q 43.3125 58.59375 39.234375 62.25 
Q 35.15625 65.921875 28.609375 65.921875 
Q 23.96875 65.921875 18.8125 64.3125 
Q 13.671875 62.703125 7.8125 59.421875 
L 7.8125 69.390625 
Q 13.765625 71.78125 18.9375 73 
Q 24.125 74.21875 28.421875 74.21875 
Q 39.75 74.21875 46.484375 68.546875 
Q 53.21875 62.890625 53.21875 53.421875 
Q 53.21875 48.921875 51.53125 44.890625 
Q 49.859375 40.875 45.40625 35.40625 
Q 44.1875 33.984375 37.640625 27.21875 
Q 31.109375 20.453125 19.1875 8.296875 
z
" id="DejaVuSans-50"/>
      </defs>
      <g style="fill:#555555;" transform="translate(119.244018 364.506562)scale(0.1 -0.1)">
       <use xlink:href="#DejaVuSans-50"/>
      </g>
     </g>
    </g>
    <g id="xtick_3">
     <g id="line2d_5">
      <path clip-path="url(#p53877a6aad)" d="M 195.626133 349.908125 
L 195.626133 10.8 
" style="fill:none;stroke:#ffffff;stroke-linecap:square;stroke-width:0.8;"/>
     </g>
     <g id="line2d_6">
      <g>
       <use style="fill:#555555;stroke:#555555;stroke-width:0.8;" x="195.626133" xlink:href="#me1437832af" y="349.908125"/>
      </g>
     </g>
     <g id="text_3">
      <!-- 3 -->
      <defs>
       <path d="M 40.578125 39.3125 
Q 47.65625 37.796875 51.625 33 
Q 55.609375 28.21875 55.609375 21.1875 
Q 55.609375 10.40625 48.1875 4.484375 
Q 40.765625 -1.421875 27.09375 -1.421875 
Q 22.515625 -1.421875 17.65625 -0.515625 
Q 12.796875 0.390625 7.625 2.203125 
L 7.625 11.71875 
Q 11.71875 9.328125 16.59375 8.109375 
Q 21.484375 6.890625 26.8125 6.890625 
Q 36.078125 6.890625 40.9375 10.546875 
Q 45.796875 14.203125 45.796875 21.1875 
Q 45.796875 27.640625 41.28125 31.265625 
Q 36.765625 34.90625 28.71875 34.90625 
L 20.21875 34.90625 
L 20.21875 43.015625 
L 29.109375 43.015625 
Q 36.375 43.015625 40.234375 45.921875 
Q 44.09375 48.828125 44.09375 54.296875 
Q 44.09375 59.90625 40.109375 62.90625 
Q 36.140625 65.921875 28.71875 65.921875 
Q 24.65625 65.921875 20.015625 65.03125 
Q 15.375 64.15625 9.8125 62.3125 
L 9.8125 71.09375 
Q 15.4375 72.65625 20.34375 73.4375 
Q 25.25 74.21875 29.59375 74.21875 
Q 40.828125 74.21875 47.359375 69.109375 
Q 53.90625 64.015625 53.90625 55.328125 
Q 53.90625 49.265625 50.4375 45.09375 
Q 46.96875 40.921875 40.578125 39.3125 
z
" id="DejaVuSans-51"/>
      </defs>
      <g style="fill:#555555;" transform="translate(192.444883 364.506562)scale(0.1 -0.1)">
       <use xlink:href="#DejaVuSans-51"/>
      </g>
     </g>
    </g>
    <g id="xtick_4">
     <g id="line2d_7">
      <path clip-path="url(#p53877a6aad)" d="M 268.826999 349.908125 
L 268.826999 10.8 
" style="fill:none;stroke:#ffffff;stroke-linecap:square;stroke-width:0.8;"/>
     </g>
     <g id="line2d_8">
      <g>
       <use style="fill:#555555;stroke:#555555;stroke-width:0.8;" x="268.826999" xlink:href="#me1437832af" y="349.908125"/>
      </g>
     </g>
     <g id="text_4">
      <!-- 4 -->
      <defs>
       <path d="M 37.796875 64.3125 
L 12.890625 25.390625 
L 37.796875 25.390625 
z
M 35.203125 72.90625 
L 47.609375 72.90625 
L 47.609375 25.390625 
L 58.015625 25.390625 
L 58.015625 17.1875 
L 47.609375 17.1875 
L 47.609375 0 
L 37.796875 0 
L 37.796875 17.1875 
L 4.890625 17.1875 
L 4.890625 26.703125 
z
" id="DejaVuSans-52"/>
      </defs>
      <g style="fill:#555555;" transform="translate(265.645749 364.506562)scale(0.1 -0.1)">
       <use xlink:href="#DejaVuSans-52"/>
      </g>
     </g>
    </g>
    <g id="xtick_5">
     <g id="line2d_9">
      <path clip-path="url(#p53877a6aad)" d="M 342.027864 349.908125 
L 342.027864 10.8 
" style="fill:none;stroke:#ffffff;stroke-linecap:square;stroke-width:0.8;"/>
     </g>
     <g id="line2d_10">
      <g>
       <use style="fill:#555555;stroke:#555555;stroke-width:0.8;" x="342.027864" xlink:href="#me1437832af" y="349.908125"/>
      </g>
     </g>
     <g id="text_5">
      <!-- 5 -->
      <defs>
       <path d="M 10.796875 72.90625 
L 49.515625 72.90625 
L 49.515625 64.59375 
L 19.828125 64.59375 
L 19.828125 46.734375 
Q 21.96875 47.46875 24.109375 47.828125 
Q 26.265625 48.1875 28.421875 48.1875 
Q 40.625 48.1875 47.75 41.5 
Q 54.890625 34.8125 54.890625 23.390625 
Q 54.890625 11.625 47.5625 5.09375 
Q 40.234375 -1.421875 26.90625 -1.421875 
Q 22.3125 -1.421875 17.546875 -0.640625 
Q 12.796875 0.140625 7.71875 1.703125 
L 7.71875 11.625 
Q 12.109375 9.234375 16.796875 8.0625 
Q 21.484375 6.890625 26.703125 6.890625 
Q 35.15625 6.890625 40.078125 11.328125 
Q 45.015625 15.765625 45.015625 23.390625 
Q 45.015625 31 40.078125 35.4375 
Q 35.15625 39.890625 26.703125 39.890625 
Q 22.75 39.890625 18.8125 39.015625 
Q 14.890625 38.140625 10.796875 36.28125 
z
" id="DejaVuSans-53"/>
      </defs>
      <g style="fill:#555555;" transform="translate(338.846614 364.506562)scale(0.1 -0.1)">
       <use xlink:href="#DejaVuSans-53"/>
      </g>
     </g>
    </g>
    <g id="xtick_6">
     <g id="line2d_11">
      <path clip-path="url(#p53877a6aad)" d="M 415.228729 349.908125 
L 415.228729 10.8 
" style="fill:none;stroke:#ffffff;stroke-linecap:square;stroke-width:0.8;"/>
     </g>
     <g id="line2d_12">
      <g>
       <use style="fill:#555555;stroke:#555555;stroke-width:0.8;" x="415.228729" xlink:href="#me1437832af" y="349.908125"/>
      </g>
     </g>
     <g id="text_6">
      <!-- 6 -->
      <defs>
       <path d="M 33.015625 40.375 
Q 26.375 40.375 22.484375 35.828125 
Q 18.609375 31.296875 18.609375 23.390625 
Q 18.609375 15.53125 22.484375 10.953125 
Q 26.375 6.390625 33.015625 6.390625 
Q 39.65625 6.390625 43.53125 10.953125 
Q 47.40625 15.53125 47.40625 23.390625 
Q 47.40625 31.296875 43.53125 35.828125 
Q 39.65625 40.375 33.015625 40.375 
z
M 52.59375 71.296875 
L 52.59375 62.3125 
Q 48.875 64.0625 45.09375 64.984375 
Q 41.3125 65.921875 37.59375 65.921875 
Q 27.828125 65.921875 22.671875 59.328125 
Q 17.53125 52.734375 16.796875 39.40625 
Q 19.671875 43.65625 24.015625 45.921875 
Q 28.375 48.1875 33.59375 48.1875 
Q 44.578125 48.1875 50.953125 41.515625 
Q 57.328125 34.859375 57.328125 23.390625 
Q 57.328125 12.15625 50.6875 5.359375 
Q 44.046875 -1.421875 33.015625 -1.421875 
Q 20.359375 -1.421875 13.671875 8.265625 
Q 6.984375 17.96875 6.984375 36.375 
Q 6.984375 53.65625 15.1875 63.9375 
Q 23.390625 74.21875 37.203125 74.21875 
Q 40.921875 74.21875 44.703125 73.484375 
Q 48.484375 72.75 52.59375 71.296875 
z
" id="DejaVuSans-54"/>
      </defs>
      <g style="fill:#555555;" transform="translate(412.047479 364.506562)scale(0.1 -0.1)">
       <use xlink:href="#DejaVuSans-54"/>
      </g>
     </g>
    </g>
    <g id="xtick_7">
     <g id="line2d_13">
      <path clip-path="url(#p53877a6aad)" d="M 488.429595 349.908125 
L 488.429595 10.8 
" style="fill:none;stroke:#ffffff;stroke-linecap:square;stroke-width:0.8;"/>
     </g>
     <g id="line2d_14">
      <g>
       <use style="fill:#555555;stroke:#555555;stroke-width:0.8;" x="488.429595" xlink:href="#me1437832af" y="349.908125"/>
      </g>
     </g>
     <g id="text_7">
      <!-- 7 -->
      <defs>
       <path d="M 8.203125 72.90625 
L 55.078125 72.90625 
L 55.078125 68.703125 
L 28.609375 0 
L 18.3125 0 
L 43.21875 64.59375 
L 8.203125 64.59375 
z
" id="DejaVuSans-55"/>
      </defs>
      <g style="fill:#555555;" transform="translate(485.248345 364.506562)scale(0.1 -0.1)">
       <use xlink:href="#DejaVuSans-55"/>
      </g>
     </g>
    </g>
    <g id="text_8">
     <!-- Fertility -->
     <defs>
      <path d="M 9.8125 72.90625 
L 51.703125 72.90625 
L 51.703125 64.59375 
L 19.671875 64.59375 
L 19.671875 43.109375 
L 48.578125 43.109375 
L 48.578125 34.8125 
L 19.671875 34.8125 
L 19.671875 0 
L 9.8125 0 
z
" id="DejaVuSans-70"/>
      <path d="M 56.203125 29.59375 
L 56.203125 25.203125 
L 14.890625 25.203125 
Q 15.484375 15.921875 20.484375 11.0625 
Q 25.484375 6.203125 34.421875 6.203125 
Q 39.59375 6.203125 44.453125 7.46875 
Q 49.3125 8.734375 54.109375 11.28125 
L 54.109375 2.78125 
Q 49.265625 0.734375 44.1875 -0.34375 
Q 39.109375 -1.421875 33.890625 -1.421875 
Q 20.796875 -1.421875 13.15625 6.1875 
Q 5.515625 13.8125 5.515625 26.8125 
Q 5.515625 40.234375 12.765625 48.109375 
Q 20.015625 56 32.328125 56 
Q 43.359375 56 49.78125 48.890625 
Q 56.203125 41.796875 56.203125 29.59375 
z
M 47.21875 32.234375 
Q 47.125 39.59375 43.09375 43.984375 
Q 39.0625 48.390625 32.421875 48.390625 
Q 24.90625 48.390625 20.390625 44.140625 
Q 15.875 39.890625 15.1875 32.171875 
z
" id="DejaVuSans-101"/>
      <path d="M 41.109375 46.296875 
Q 39.59375 47.171875 37.8125 47.578125 
Q 36.03125 48 33.890625 48 
Q 26.265625 48 22.1875 43.046875 
Q 18.109375 38.09375 18.109375 28.8125 
L 18.109375 0 
L 9.078125 0 
L 9.078125 54.6875 
L 18.109375 54.6875 
L 18.109375 46.1875 
Q 20.953125 51.171875 25.484375 53.578125 
Q 30.03125 56 36.53125 56 
Q 37.453125 56 38.578125 55.875 
Q 39.703125 55.765625 41.0625 55.515625 
z
" id="DejaVuSans-114"/>
      <path d="M 18.3125 70.21875 
L 18.3125 54.6875 
L 36.8125 54.6875 
L 36.8125 47.703125 
L 18.3125 47.703125 
L 18.3125 18.015625 
Q 18.3125 11.328125 20.140625 9.421875 
Q 21.96875 7.515625 27.59375 7.515625 
L 36.8125 7.515625 
L 36.8125 0 
L 27.59375 0 
Q 17.1875 0 13.234375 3.875 
Q 9.28125 7.765625 9.28125 18.015625 
L 9.28125 47.703125 
L 2.6875 47.703125 
L 2.6875 54.6875 
L 9.28125 54.6875 
L 9.28125 70.21875 
z
" id="DejaVuSans-116"/>
      <path d="M 9.421875 54.6875 
L 18.40625 54.6875 
L 18.40625 0 
L 9.421875 0 
z
M 9.421875 75.984375 
L 18.40625 75.984375 
L 18.40625 64.59375 
L 9.421875 64.59375 
z
" id="DejaVuSans-105"/>
      <path d="M 9.421875 75.984375 
L 18.40625 75.984375 
L 18.40625 0 
L 9.421875 0 
z
" id="DejaVuSans-108"/>
      <path d="M 32.171875 -5.078125 
Q 28.375 -14.84375 24.75 -17.8125 
Q 21.140625 -20.796875 15.09375 -20.796875 
L 7.90625 -20.796875 
L 7.90625 -13.28125 
L 13.1875 -13.28125 
Q 16.890625 -13.28125 18.9375 -11.515625 
Q 21 -9.765625 23.484375 -3.21875 
L 25.09375 0.875 
L 2.984375 54.6875 
L 12.5 54.6875 
L 29.59375 11.921875 
L 46.6875 54.6875 
L 56.203125 54.6875 
z
" id="DejaVuSans-121"/>
     </defs>
     <g style="fill:#555555;" transform="translate(277.808437 379.704375)scale(0.12 -0.12)">
      <use xlink:href="#DejaVuSans-70"/>
      <use x="57.441406" xlink:href="#DejaVuSans-101"/>
      <use x="118.964844" xlink:href="#DejaVuSans-114"/>
      <use x="160.078125" xlink:href="#DejaVuSans-116"/>
      <use x="199.287109" xlink:href="#DejaVuSans-105"/>
      <use x="227.070312" xlink:href="#DejaVuSans-108"/>
      <use x="254.853516" xlink:href="#DejaVuSans-105"/>
      <use x="282.636719" xlink:href="#DejaVuSans-116"/>
      <use x="321.845703" xlink:href="#DejaVuSans-121"/>
     </g>
    </g>
   </g>
   <g id="matplotlib.axis_2">
    <g id="ytick_1">
     <g id="line2d_15">
      <path clip-path="url(#p53877a6aad)" d="M 46.13875 336.075084 
L 555.2 336.075084 
" style="fill:none;stroke:#ffffff;stroke-linecap:square;stroke-width:0.8;"/>
     </g>
     <g id="line2d_16">
      <defs>
       <path d="M 0 0 
L -3.5 0 
" id="m3881962bc9" style="stroke:#555555;stroke-width:0.8;"/>
      </defs>
      <g>
       <use style="fill:#555555;stroke:#555555;stroke-width:0.8;" x="46.13875" xlink:href="#m3881962bc9" y="336.075084"/>
      </g>
     </g>
     <g id="text_9">
      <!-- 45 -->
      <g style="fill:#555555;" transform="translate(26.41375 339.874303)scale(0.1 -0.1)">
       <use xlink:href="#DejaVuSans-52"/>
       <use x="63.623047" xlink:href="#DejaVuSans-53"/>
      </g>
     </g>
    </g>
    <g id="ytick_2">
     <g id="line2d_17">
      <path clip-path="url(#p53877a6aad)" d="M 46.13875 294.879047 
L 555.2 294.879047 
" style="fill:none;stroke:#ffffff;stroke-linecap:square;stroke-width:0.8;"/>
     </g>
     <g id="line2d_18">
      <g>
       <use style="fill:#555555;stroke:#555555;stroke-width:0.8;" x="46.13875" xlink:href="#m3881962bc9" y="294.879047"/>
      </g>
     </g>
     <g id="text_10">
      <!-- 50 -->
      <defs>
       <path d="M 31.78125 66.40625 
Q 24.171875 66.40625 20.328125 58.90625 
Q 16.5 51.421875 16.5 36.375 
Q 16.5 21.390625 20.328125 13.890625 
Q 24.171875 6.390625 31.78125 6.390625 
Q 39.453125 6.390625 43.28125 13.890625 
Q 47.125 21.390625 47.125 36.375 
Q 47.125 51.421875 43.28125 58.90625 
Q 39.453125 66.40625 31.78125 66.40625 
z
M 31.78125 74.21875 
Q 44.046875 74.21875 50.515625 64.515625 
Q 56.984375 54.828125 56.984375 36.375 
Q 56.984375 17.96875 50.515625 8.265625 
Q 44.046875 -1.421875 31.78125 -1.421875 
Q 19.53125 -1.421875 13.0625 8.265625 
Q 6.59375 17.96875 6.59375 36.375 
Q 6.59375 54.828125 13.0625 64.515625 
Q 19.53125 74.21875 31.78125 74.21875 
z
" id="DejaVuSans-48"/>
      </defs>
      <g style="fill:#555555;" transform="translate(26.41375 298.678265)scale(0.1 -0.1)">
       <use xlink:href="#DejaVuSans-53"/>
       <use x="63.623047" xlink:href="#DejaVuSans-48"/>
      </g>
     </g>
    </g>
    <g id="ytick_3">
     <g id="line2d_19">
      <path clip-path="url(#p53877a6aad)" d="M 46.13875 253.683009 
L 555.2 253.683009 
" style="fill:none;stroke:#ffffff;stroke-linecap:square;stroke-width:0.8;"/>
     </g>
     <g id="line2d_20">
      <g>
       <use style="fill:#555555;stroke:#555555;stroke-width:0.8;" x="46.13875" xlink:href="#m3881962bc9" y="253.683009"/>
      </g>
     </g>
     <g id="text_11">
      <!-- 55 -->
      <g style="fill:#555555;" transform="translate(26.41375 257.482228)scale(0.1 -0.1)">
       <use xlink:href="#DejaVuSans-53"/>
       <use x="63.623047" xlink:href="#DejaVuSans-53"/>
      </g>
     </g>
    </g>
    <g id="ytick_4">
     <g id="line2d_21">
      <path clip-path="url(#p53877a6aad)" d="M 46.13875 212.486972 
L 555.2 212.486972 
" style="fill:none;stroke:#ffffff;stroke-linecap:square;stroke-width:0.8;"/>
     </g>
     <g id="line2d_22">
      <g>
       <use style="fill:#555555;stroke:#555555;stroke-width:0.8;" x="46.13875" xlink:href="#m3881962bc9" y="212.486972"/>
      </g>
     </g>
     <g id="text_12">
      <!-- 60 -->
      <g style="fill:#555555;" transform="translate(26.41375 216.28619)scale(0.1 -0.1)">
       <use xlink:href="#DejaVuSans-54"/>
       <use x="63.623047" xlink:href="#DejaVuSans-48"/>
      </g>
     </g>
    </g>
    <g id="ytick_5">
     <g id="line2d_23">
      <path clip-path="url(#p53877a6aad)" d="M 46.13875 171.290934 
L 555.2 171.290934 
" style="fill:none;stroke:#ffffff;stroke-linecap:square;stroke-width:0.8;"/>
     </g>
     <g id="line2d_24">
      <g>
       <use style="fill:#555555;stroke:#555555;stroke-width:0.8;" x="46.13875" xlink:href="#m3881962bc9" y="171.290934"/>
      </g>
     </g>
     <g id="text_13">
      <!-- 65 -->
      <g style="fill:#555555;" transform="translate(26.41375 175.090153)scale(0.1 -0.1)">
       <use xlink:href="#DejaVuSans-54"/>
       <use x="63.623047" xlink:href="#DejaVuSans-53"/>
      </g>
     </g>
    </g>
    <g id="ytick_6">
     <g id="line2d_25">
      <path clip-path="url(#p53877a6aad)" d="M 46.13875 130.094897 
L 555.2 130.094897 
" style="fill:none;stroke:#ffffff;stroke-linecap:square;stroke-width:0.8;"/>
     </g>
     <g id="line2d_26">
      <g>
       <use style="fill:#555555;stroke:#555555;stroke-width:0.8;" x="46.13875" xlink:href="#m3881962bc9" y="130.094897"/>
      </g>
     </g>
     <g id="text_14">
      <!-- 70 -->
      <g style="fill:#555555;" transform="translate(26.41375 133.894116)scale(0.1 -0.1)">
       <use xlink:href="#DejaVuSans-55"/>
       <use x="63.623047" xlink:href="#DejaVuSans-48"/>
      </g>
     </g>
    </g>
    <g id="ytick_7">
     <g id="line2d_27">
      <path clip-path="url(#p53877a6aad)" d="M 46.13875 88.898859 
L 555.2 88.898859 
" style="fill:none;stroke:#ffffff;stroke-linecap:square;stroke-width:0.8;"/>
     </g>
     <g id="line2d_28">
      <g>
       <use style="fill:#555555;stroke:#555555;stroke-width:0.8;" x="46.13875" xlink:href="#m3881962bc9" y="88.898859"/>
      </g>
     </g>
     <g id="text_15">
      <!-- 75 -->
      <g style="fill:#555555;" transform="translate(26.41375 92.698078)scale(0.1 -0.1)">
       <use xlink:href="#DejaVuSans-55"/>
       <use x="63.623047" xlink:href="#DejaVuSans-53"/>
      </g>
     </g>
    </g>
    <g id="ytick_8">
     <g id="line2d_29">
      <path clip-path="url(#p53877a6aad)" d="M 46.13875 47.702822 
L 555.2 47.702822 
" style="fill:none;stroke:#ffffff;stroke-linecap:square;stroke-width:0.8;"/>
     </g>
     <g id="line2d_30">
      <g>
       <use style="fill:#555555;stroke:#555555;stroke-width:0.8;" x="46.13875" xlink:href="#m3881962bc9" y="47.702822"/>
      </g>
     </g>
     <g id="text_16">
      <!-- 80 -->
      <defs>
       <path d="M 31.78125 34.625 
Q 24.75 34.625 20.71875 30.859375 
Q 16.703125 27.09375 16.703125 20.515625 
Q 16.703125 13.921875 20.71875 10.15625 
Q 24.75 6.390625 31.78125 6.390625 
Q 38.8125 6.390625 42.859375 10.171875 
Q 46.921875 13.96875 46.921875 20.515625 
Q 46.921875 27.09375 42.890625 30.859375 
Q 38.875 34.625 31.78125 34.625 
z
M 21.921875 38.8125 
Q 15.578125 40.375 12.03125 44.71875 
Q 8.5 49.078125 8.5 55.328125 
Q 8.5 64.0625 14.71875 69.140625 
Q 20.953125 74.21875 31.78125 74.21875 
Q 42.671875 74.21875 48.875 69.140625 
Q 55.078125 64.0625 55.078125 55.328125 
Q 55.078125 49.078125 51.53125 44.71875 
Q 48 40.375 41.703125 38.8125 
Q 48.828125 37.15625 52.796875 32.3125 
Q 56.78125 27.484375 56.78125 20.515625 
Q 56.78125 9.90625 50.3125 4.234375 
Q 43.84375 -1.421875 31.78125 -1.421875 
Q 19.734375 -1.421875 13.25 4.234375 
Q 6.78125 9.90625 6.78125 20.515625 
Q 6.78125 27.484375 10.78125 32.3125 
Q 14.796875 37.15625 21.921875 38.8125 
z
M 18.3125 54.390625 
Q 18.3125 48.734375 21.84375 45.5625 
Q 25.390625 42.390625 31.78125 42.390625 
Q 38.140625 42.390625 41.71875 45.5625 
Q 45.3125 48.734375 45.3125 54.390625 
Q 45.3125 60.0625 41.71875 63.234375 
Q 38.140625 66.40625 31.78125 66.40625 
Q 25.390625 66.40625 21.84375 63.234375 
Q 18.3125 60.0625 18.3125 54.390625 
z
" id="DejaVuSans-56"/>
      </defs>
      <g style="fill:#555555;" transform="translate(26.41375 51.502041)scale(0.1 -0.1)">
       <use xlink:href="#DejaVuSans-56"/>
       <use x="63.623047" xlink:href="#DejaVuSans-48"/>
      </g>
     </g>
    </g>
    <g id="text_17">
     <!-- Life Expectancy -->
     <defs>
      <path d="M 9.8125 72.90625 
L 19.671875 72.90625 
L 19.671875 8.296875 
L 55.171875 8.296875 
L 55.171875 0 
L 9.8125 0 
z
" id="DejaVuSans-76"/>
      <path d="M 37.109375 75.984375 
L 37.109375 68.5 
L 28.515625 68.5 
Q 23.6875 68.5 21.796875 66.546875 
Q 19.921875 64.59375 19.921875 59.515625 
L 19.921875 54.6875 
L 34.71875 54.6875 
L 34.71875 47.703125 
L 19.921875 47.703125 
L 19.921875 0 
L 10.890625 0 
L 10.890625 47.703125 
L 2.296875 47.703125 
L 2.296875 54.6875 
L 10.890625 54.6875 
L 10.890625 58.5 
Q 10.890625 67.625 15.140625 71.796875 
Q 19.390625 75.984375 28.609375 75.984375 
z
" id="DejaVuSans-102"/>
      <path id="DejaVuSans-32"/>
      <path d="M 9.8125 72.90625 
L 55.90625 72.90625 
L 55.90625 64.59375 
L 19.671875 64.59375 
L 19.671875 43.015625 
L 54.390625 43.015625 
L 54.390625 34.71875 
L 19.671875 34.71875 
L 19.671875 8.296875 
L 56.78125 8.296875 
L 56.78125 0 
L 9.8125 0 
z
" id="DejaVuSans-69"/>
      <path d="M 54.890625 54.6875 
L 35.109375 28.078125 
L 55.90625 0 
L 45.3125 0 
L 29.390625 21.484375 
L 13.484375 0 
L 2.875 0 
L 24.125 28.609375 
L 4.6875 54.6875 
L 15.28125 54.6875 
L 29.78125 35.203125 
L 44.28125 54.6875 
z
" id="DejaVuSans-120"/>
      <path d="M 18.109375 8.203125 
L 18.109375 -20.796875 
L 9.078125 -20.796875 
L 9.078125 54.6875 
L 18.109375 54.6875 
L 18.109375 46.390625 
Q 20.953125 51.265625 25.265625 53.625 
Q 29.59375 56 35.59375 56 
Q 45.5625 56 51.78125 48.09375 
Q 58.015625 40.1875 58.015625 27.296875 
Q 58.015625 14.40625 51.78125 6.484375 
Q 45.5625 -1.421875 35.59375 -1.421875 
Q 29.59375 -1.421875 25.265625 0.953125 
Q 20.953125 3.328125 18.109375 8.203125 
z
M 48.6875 27.296875 
Q 48.6875 37.203125 44.609375 42.84375 
Q 40.53125 48.484375 33.40625 48.484375 
Q 26.265625 48.484375 22.1875 42.84375 
Q 18.109375 37.203125 18.109375 27.296875 
Q 18.109375 17.390625 22.1875 11.75 
Q 26.265625 6.109375 33.40625 6.109375 
Q 40.53125 6.109375 44.609375 11.75 
Q 48.6875 17.390625 48.6875 27.296875 
z
" id="DejaVuSans-112"/>
      <path d="M 48.78125 52.59375 
L 48.78125 44.1875 
Q 44.96875 46.296875 41.140625 47.34375 
Q 37.3125 48.390625 33.40625 48.390625 
Q 24.65625 48.390625 19.8125 42.84375 
Q 14.984375 37.3125 14.984375 27.296875 
Q 14.984375 17.28125 19.8125 11.734375 
Q 24.65625 6.203125 33.40625 6.203125 
Q 37.3125 6.203125 41.140625 7.25 
Q 44.96875 8.296875 48.78125 10.40625 
L 48.78125 2.09375 
Q 45.015625 0.34375 40.984375 -0.53125 
Q 36.96875 -1.421875 32.421875 -1.421875 
Q 20.0625 -1.421875 12.78125 6.34375 
Q 5.515625 14.109375 5.515625 27.296875 
Q 5.515625 40.671875 12.859375 48.328125 
Q 20.21875 56 33.015625 56 
Q 37.15625 56 41.109375 55.140625 
Q 45.0625 54.296875 48.78125 52.59375 
z
" id="DejaVuSans-99"/>
      <path d="M 34.28125 27.484375 
Q 23.390625 27.484375 19.1875 25 
Q 14.984375 22.515625 14.984375 16.5 
Q 14.984375 11.71875 18.140625 8.90625 
Q 21.296875 6.109375 26.703125 6.109375 
Q 34.1875 6.109375 38.703125 11.40625 
Q 43.21875 16.703125 43.21875 25.484375 
L 43.21875 27.484375 
z
M 52.203125 31.203125 
L 52.203125 0 
L 43.21875 0 
L 43.21875 8.296875 
Q 40.140625 3.328125 35.546875 0.953125 
Q 30.953125 -1.421875 24.3125 -1.421875 
Q 15.921875 -1.421875 10.953125 3.296875 
Q 6 8.015625 6 15.921875 
Q 6 25.140625 12.171875 29.828125 
Q 18.359375 34.515625 30.609375 34.515625 
L 43.21875 34.515625 
L 43.21875 35.40625 
Q 43.21875 41.609375 39.140625 45 
Q 35.0625 48.390625 27.6875 48.390625 
Q 23 48.390625 18.546875 47.265625 
Q 14.109375 46.140625 10.015625 43.890625 
L 10.015625 52.203125 
Q 14.9375 54.109375 19.578125 55.046875 
Q 24.21875 56 28.609375 56 
Q 40.484375 56 46.34375 49.84375 
Q 52.203125 43.703125 52.203125 31.203125 
z
" id="DejaVuSans-97"/>
      <path d="M 54.890625 33.015625 
L 54.890625 0 
L 45.90625 0 
L 45.90625 32.71875 
Q 45.90625 40.484375 42.875 44.328125 
Q 39.84375 48.1875 33.796875 48.1875 
Q 26.515625 48.1875 22.3125 43.546875 
Q 18.109375 38.921875 18.109375 30.90625 
L 18.109375 0 
L 9.078125 0 
L 9.078125 54.6875 
L 18.109375 54.6875 
L 18.109375 46.1875 
Q 21.34375 51.125 25.703125 53.5625 
Q 30.078125 56 35.796875 56 
Q 45.21875 56 50.046875 50.171875 
Q 54.890625 44.34375 54.890625 33.015625 
z
" id="DejaVuSans-110"/>
     </defs>
     <g style="fill:#555555;" transform="translate(19.918125 227.899375)rotate(-90)scale(0.12 -0.12)">
      <use xlink:href="#DejaVuSans-76"/>
      <use x="55.712891" xlink:href="#DejaVuSans-105"/>
      <use x="83.496094" xlink:href="#DejaVuSans-102"/>
      <use x="118.701172" xlink:href="#DejaVuSans-101"/>
      <use x="180.224609" xlink:href="#DejaVuSans-32"/>
      <use x="212.011719" xlink:href="#DejaVuSans-69"/>
      <use x="275.195312" xlink:href="#DejaVuSans-120"/>
      <use x="334.375" xlink:href="#DejaVuSans-112"/>
      <use x="397.851562" xlink:href="#DejaVuSans-101"/>
      <use x="459.375" xlink:href="#DejaVuSans-99"/>
      <use x="514.355469" xlink:href="#DejaVuSans-116"/>
      <use x="553.564453" xlink:href="#DejaVuSans-97"/>
      <use x="614.84375" xlink:href="#DejaVuSans-110"/>
      <use x="678.222656" xlink:href="#DejaVuSans-99"/>
      <use x="733.203125" xlink:href="#DejaVuSans-121"/>
     </g>
    </g>
   </g>
   <g id="PathCollection_1">
    <defs>
     <path d="M 0 3 
C 0.795609 3 1.55874 2.683901 2.12132 2.12132 
C 2.683901 1.55874 3 0.795609 3 0 
C 3 -0.795609 2.683901 -1.55874 2.12132 -2.12132 
C 1.55874 -2.683901 0.795609 -3 0 -3 
C -0.795609 -3 -1.55874 -2.683901 -2.12132 -2.12132 
C -2.683901 -1.55874 -3 -0.795609 -3 0 
C -3 0.795609 -2.683901 1.55874 -2.12132 2.12132 
C -1.55874 2.683901 -0.795609 3 0 3 
z
" id="m7f22bcbb32" style="stroke:#0000ff;stroke-width:0.5;"/>
    </defs>
    <g clip-path="url(#p53877a6aad)">
     <use style="fill:#0000ff;stroke:#0000ff;stroke-width:0.5;" x="175.8619" xlink:href="#m7f22bcbb32" y="86.427097"/>
     <use style="fill:#0000ff;stroke:#0000ff;stroke-width:0.5;" x="446.705101" xlink:href="#m7f22bcbb32" y="226.493624"/>
     <use style="fill:#0000ff;stroke:#0000ff;stroke-width:0.5;" x="139.993476" xlink:href="#m7f22bcbb32" y="84.779256"/>
     <use style="fill:#0000ff;stroke:#0000ff;stroke-width:0.5;" x="78.504749" xlink:href="#m7f22bcbb32" y="109.496878"/>
     <use style="fill:#0000ff;stroke:#0000ff;stroke-width:0.5;" x="119.497233" xlink:href="#m7f22bcbb32" y="35.344011"/>
     <use style="fill:#0000ff;stroke:#0000ff;stroke-width:0.5;" x="79.236757" xlink:href="#m7f22bcbb32" y="44.407139"/>
     <use style="fill:#0000ff;stroke:#0000ff;stroke-width:0.5;" x="121.693259" xlink:href="#m7f22bcbb32" y="125.151372"/>
     <use style="fill:#0000ff;stroke:#0000ff;stroke-width:0.5;" x="114.373173" xlink:href="#m7f22bcbb32" y="111.96864"/>
     <use style="fill:#0000ff;stroke:#0000ff;stroke-width:0.5;" x="150.241597" xlink:href="#m7f22bcbb32" y="143.277629"/>
     <use style="fill:#0000ff;stroke:#0000ff;stroke-width:0.5;" x="109.981121" xlink:href="#m7f22bcbb32" y="86.427097"/>
     <use style="fill:#0000ff;stroke:#0000ff;stroke-width:0.5;" x="79.968766" xlink:href="#m7f22bcbb32" y="129.270976"/>
     <use style="fill:#0000ff;stroke:#0000ff;stroke-width:0.5;" x="109.249112" xlink:href="#m7f22bcbb32" y="52.646346"/>
     <use style="fill:#0000ff;stroke:#0000ff;stroke-width:0.5;" x="189.038055" xlink:href="#m7f22bcbb32" y="124.327452"/>
     <use style="fill:#0000ff;stroke:#0000ff;stroke-width:0.5;" x="361.792098" xlink:href="#m7f22bcbb32" y="186.121508"/>
     <use style="fill:#0000ff;stroke:#0000ff;stroke-width:0.5;" x="159.757709" xlink:href="#m7f22bcbb32" y="149.868995"/>
     <use style="fill:#0000ff;stroke:#0000ff;stroke-width:0.5;" x="230.762549" xlink:href="#m7f22bcbb32" y="122.67961"/>
     <use style="fill:#0000ff;stroke:#0000ff;stroke-width:0.5;" x="185.378012" xlink:href="#m7f22bcbb32" y="202.599923"/>
     <use style="fill:#0000ff;stroke:#0000ff;stroke-width:0.5;" x="115.105181" xlink:href="#m7f22bcbb32" y="97.961988"/>
     <use style="fill:#0000ff;stroke:#0000ff;stroke-width:0.5;" x="80.700775" xlink:href="#m7f22bcbb32" y="103.729433"/>
     <use style="fill:#0000ff;stroke:#0000ff;stroke-width:0.5;" x="418.156764" xlink:href="#m7f22bcbb32" y="217.430496"/>
     <use style="fill:#0000ff;stroke:#0000ff;stroke-width:0.5;" x="450.365145" xlink:href="#m7f22bcbb32" y="233.908911"/>
     <use style="fill:#0000ff;stroke:#0000ff;stroke-width:0.5;" x="199.286177" xlink:href="#m7f22bcbb32" y="161.403885"/>
     <use style="fill:#0000ff;stroke:#0000ff;stroke-width:0.5;" x="354.472011" xlink:href="#m7f22bcbb32" y="240.500277"/>
     <use style="fill:#0000ff;stroke:#0000ff;stroke-width:0.5;" x="99.000991" xlink:href="#m7f22bcbb32" y="41.935377"/>
     <use style="fill:#0000ff;stroke:#0000ff;stroke-width:0.5;" x="474.52143" xlink:href="#m7f22bcbb32" y="255.330851"/>
     <use style="fill:#0000ff;stroke:#0000ff;stroke-width:0.5;" x="114.373173" xlink:href="#m7f22bcbb32" y="56.76595"/>
     <use style="fill:#0000ff;stroke:#0000ff;stroke-width:0.5;" x="153.90164" xlink:href="#m7f22bcbb32" y="88.074939"/>
     <use style="fill:#0000ff;stroke:#0000ff;stroke-width:0.5;" x="345.687907" xlink:href="#m7f22bcbb32" y="191.065032"/>
     <use style="fill:#0000ff;stroke:#0000ff;stroke-width:0.5;" x="349.34795" xlink:href="#m7f22bcbb32" y="224.021862"/>
     <use style="fill:#0000ff;stroke:#0000ff;stroke-width:0.5;" x="115.83719" xlink:href="#m7f22bcbb32" y="50.174584"/>
     <use style="fill:#0000ff;stroke:#0000ff;stroke-width:0.5;" x="335.439786" xlink:href="#m7f22bcbb32" y="246.267722"/>
     <use style="fill:#0000ff;stroke:#0000ff;stroke-width:0.5;" x="80.700775" xlink:href="#m7f22bcbb32" y="76.540048"/>
     <use style="fill:#0000ff;stroke:#0000ff;stroke-width:0.5;" x="85.824835" xlink:href="#m7f22bcbb32" y="65.829078"/>
     <use style="fill:#0000ff;stroke:#0000ff;stroke-width:0.5;" x="114.373173" xlink:href="#m7f22bcbb32" y="58.413792"/>
     <use style="fill:#0000ff;stroke:#0000ff;stroke-width:0.5;" x="251.258791" xlink:href="#m7f22bcbb32" y="204.247764"/>
     <use style="fill:#0000ff;stroke:#0000ff;stroke-width:0.5;" x="175.8619" xlink:href="#m7f22bcbb32" y="97.138067"/>
     <use style="fill:#0000ff;stroke:#0000ff;stroke-width:0.5;" x="191.96609" xlink:href="#m7f22bcbb32" y="129.270976"/>
     <use style="fill:#0000ff;stroke:#0000ff;stroke-width:0.5;" x="145.849545" xlink:href="#m7f22bcbb32" y="96.314146"/>
     <use style="fill:#0000ff;stroke:#0000ff;stroke-width:0.5;" x="364.720132" xlink:href="#m7f22bcbb32" y="239.676356"/>
     <use style="fill:#0000ff;stroke:#0000ff;stroke-width:0.5;" x="353.740002" xlink:href="#m7f22bcbb32" y="209.191289"/>
     <use style="fill:#0000ff;stroke:#0000ff;stroke-width:0.5;" x="94.608939" xlink:href="#m7f22bcbb32" y="97.138067"/>
     <use style="fill:#0000ff;stroke:#0000ff;stroke-width:0.5;" x="176.593908" xlink:href="#m7f22bcbb32" y="165.523489"/>
     <use style="fill:#0000ff;stroke:#0000ff;stroke-width:0.5;" x="111.445138" xlink:href="#m7f22bcbb32" y="52.646346"/>
     <use style="fill:#0000ff;stroke:#0000ff;stroke-width:0.5;" x="120.229242" xlink:href="#m7f22bcbb32" y="39.463614"/>
     <use style="fill:#0000ff;stroke:#0000ff;stroke-width:0.5;" x="289.323241" xlink:href="#m7f22bcbb32" y="233.08499"/>
     <use style="fill:#0000ff;stroke:#0000ff;stroke-width:0.5;" x="400.588556" xlink:href="#m7f22bcbb32" y="194.360715"/>
     <use style="fill:#0000ff;stroke:#0000ff;stroke-width:0.5;" x="107.053086" xlink:href="#m7f22bcbb32" y="112.792561"/>
     <use style="fill:#0000ff;stroke:#0000ff;stroke-width:0.5;" x="76.308723" xlink:href="#m7f22bcbb32" y="47.702822"/>
     <use style="fill:#0000ff;stroke:#0000ff;stroke-width:0.5;" x="282.735163" xlink:href="#m7f22bcbb32" y="190.241111"/>
     <use style="fill:#0000ff;stroke:#0000ff;stroke-width:0.5;" x="82.896801" xlink:href="#m7f22bcbb32" y="51.822426"/>
     <use style="fill:#0000ff;stroke:#0000ff;stroke-width:0.5;" x="277.611102" xlink:href="#m7f22bcbb32" y="123.503531"/>
     <use style="fill:#0000ff;stroke:#0000ff;stroke-width:0.5;" x="366.916158" xlink:href="#m7f22bcbb32" y="226.493624"/>
     <use style="fill:#0000ff;stroke:#0000ff;stroke-width:0.5;" x="360.32808" xlink:href="#m7f22bcbb32" y="284.168077"/>
     <use style="fill:#0000ff;stroke:#0000ff;stroke-width:0.5;" x="176.593908" xlink:href="#m7f22bcbb32" y="187.769349"/>
     <use style="fill:#0000ff;stroke:#0000ff;stroke-width:0.5;" x="232.226566" xlink:href="#m7f22bcbb32" y="198.480319"/>
     <use style="fill:#0000ff;stroke:#0000ff;stroke-width:0.5;" x="215.390367" xlink:href="#m7f22bcbb32" y="122.67961"/>
     <use style="fill:#0000ff;stroke:#0000ff;stroke-width:0.5;" x="73.380688" xlink:href="#m7f22bcbb32" y="98.785908"/>
     <use style="fill:#0000ff;stroke:#0000ff;stroke-width:0.5;" x="131.209372" xlink:href="#m7f22bcbb32" y="31.224407"/>
     <use style="fill:#0000ff;stroke:#0000ff;stroke-width:0.5;" x="169.273822" xlink:href="#m7f22bcbb32" y="176.234459"/>
     <use style="fill:#0000ff;stroke:#0000ff;stroke-width:0.5;" x="157.561683" xlink:href="#m7f22bcbb32" y="134.214501"/>
     <use style="fill:#0000ff;stroke:#0000ff;stroke-width:0.5;" x="113.641164" xlink:href="#m7f22bcbb32" y="73.244365"/>
     <use style="fill:#0000ff;stroke:#0000ff;stroke-width:0.5;" x="122.425268" xlink:href="#m7f22bcbb32" y="52.646346"/>
     <use style="fill:#0000ff;stroke:#0000ff;stroke-width:0.5;" x="189.770064" xlink:href="#m7f22bcbb32" y="40.287535"/>
     <use style="fill:#0000ff;stroke:#0000ff;stroke-width:0.5;" x="77.77274" xlink:href="#m7f22bcbb32" y="36.167931"/>
     <use style="fill:#0000ff;stroke:#0000ff;stroke-width:0.5;" x="150.973605" xlink:href="#m7f22bcbb32" y="84.779256"/>
     <use style="fill:#0000ff;stroke:#0000ff;stroke-width:0.5;" x="74.112697" xlink:href="#m7f22bcbb32" y="26.280882"/>
     <use style="fill:#0000ff;stroke:#0000ff;stroke-width:0.5;" x="159.757709" xlink:href="#m7f22bcbb32" y="162.227806"/>
     <use style="fill:#0000ff;stroke:#0000ff;stroke-width:0.5;" x="324.459656" xlink:href="#m7f22bcbb32" y="200.12816"/>
     <use style="fill:#0000ff;stroke:#0000ff;stroke-width:0.5;" x="85.824835" xlink:href="#m7f22bcbb32" y="111.14472"/>
     <use style="fill:#0000ff;stroke:#0000ff;stroke-width:0.5;" x="90.948896" xlink:href="#m7f22bcbb32" y="67.47692"/>
     <use style="fill:#0000ff;stroke:#0000ff;stroke-width:0.5;" x="220.514427" xlink:href="#m7f22bcbb32" y="334.427243"/>
     <use style="fill:#0000ff;stroke:#0000ff;stroke-width:0.5;" x="355.936028" xlink:href="#m7f22bcbb32" y="204.247764"/>
     <use style="fill:#0000ff;stroke:#0000ff;stroke-width:0.5;" x="79.968766" xlink:href="#m7f22bcbb32" y="113.616482"/>
     <use style="fill:#0000ff;stroke:#0000ff;stroke-width:0.5;" x="95.340948" xlink:href="#m7f22bcbb32" y="41.935377"/>
     <use style="fill:#0000ff;stroke:#0000ff;stroke-width:0.5;" x="326.655682" xlink:href="#m7f22bcbb32" y="184.473666"/>
     <use style="fill:#0000ff;stroke:#0000ff;stroke-width:0.5;" x="399.124539" xlink:href="#m7f22bcbb32" y="283.344156"/>
     <use style="fill:#0000ff;stroke:#0000ff;stroke-width:0.5;" x="126.085311" xlink:href="#m7f22bcbb32" y="93.018463"/>
     <use style="fill:#0000ff;stroke:#0000ff;stroke-width:0.5;" x="150.241597" xlink:href="#m7f22bcbb32" y="62.533395"/>
     <use style="fill:#0000ff;stroke:#0000ff;stroke-width:0.5;" x="475.253439" xlink:href="#m7f22bcbb32" y="247.091643"/>
     <use style="fill:#0000ff;stroke:#0000ff;stroke-width:0.5;" x="77.040731" xlink:href="#m7f22bcbb32" y="36.167931"/>
     <use style="fill:#0000ff;stroke:#0000ff;stroke-width:0.5;" x="337.635812" xlink:href="#m7f22bcbb32" y="182.825825"/>
     <use style="fill:#0000ff;stroke:#0000ff;stroke-width:0.5;" x="91.680904" xlink:href="#m7f22bcbb32" y="112.792561"/>
     <use style="fill:#0000ff;stroke:#0000ff;stroke-width:0.5;" x="148.045571" xlink:href="#m7f22bcbb32" y="83.131414"/>
     <use style="fill:#0000ff;stroke:#0000ff;stroke-width:0.5;" x="85.092827" xlink:href="#m7f22bcbb32" y="133.39058"/>
     <use style="fill:#0000ff;stroke:#0000ff;stroke-width:0.5;" x="149.509588" xlink:href="#m7f22bcbb32" y="186.121508"/>
     <use style="fill:#0000ff;stroke:#0000ff;stroke-width:0.5;" x="154.633649" xlink:href="#m7f22bcbb32" y="102.905512"/>
     <use style="fill:#0000ff;stroke:#0000ff;stroke-width:0.5;" x="381.556331" xlink:href="#m7f22bcbb32" y="253.683009"/>
     <use style="fill:#0000ff;stroke:#0000ff;stroke-width:0.5;" x="126.085311" xlink:href="#m7f22bcbb32" y="205.895606"/>
     <use style="fill:#0000ff;stroke:#0000ff;stroke-width:0.5;" x="188.306047" xlink:href="#m7f22bcbb32" y="141.629787"/>
     <use style="fill:#0000ff;stroke:#0000ff;stroke-width:0.5;" x="105.589069" xlink:href="#m7f22bcbb32" y="45.23106"/>
     <use style="fill:#0000ff;stroke:#0000ff;stroke-width:0.5;" x="131.209372" xlink:href="#m7f22bcbb32" y="46.05498"/>
     <use style="fill:#0000ff;stroke:#0000ff;stroke-width:0.5;" x="175.129891" xlink:href="#m7f22bcbb32" y="87.251018"/>
     <use style="fill:#0000ff;stroke:#0000ff;stroke-width:0.5;" x="531.618105" xlink:href="#m7f22bcbb32" y="214.958734"/>
     <use style="fill:#0000ff;stroke:#0000ff;stroke-width:0.5;" x="416.692747" xlink:href="#m7f22bcbb32" y="228.965387"/>
     <use style="fill:#0000ff;stroke:#0000ff;stroke-width:0.5;" x="119.497233" xlink:href="#m7f22bcbb32" y="41.935377"/>
     <use style="fill:#0000ff;stroke:#0000ff;stroke-width:0.5;" x="187.574038" xlink:href="#m7f22bcbb32" y="92.194542"/>
     <use style="fill:#0000ff;stroke:#0000ff;stroke-width:0.5;" x="238.082635" xlink:href="#m7f22bcbb32" y="178.706221"/>
     <use style="fill:#0000ff;stroke:#0000ff;stroke-width:0.5;" x="167.077796" xlink:href="#m7f22bcbb32" y="71.596524"/>
     <use style="fill:#0000ff;stroke:#0000ff;stroke-width:0.5;" x="273.951059" xlink:href="#m7f22bcbb32" y="227.317545"/>
     <use style="fill:#0000ff;stroke:#0000ff;stroke-width:0.5;" x="200.018185" xlink:href="#m7f22bcbb32" y="100.43375"/>
     <use style="fill:#0000ff;stroke:#0000ff;stroke-width:0.5;" x="164.88177" xlink:href="#m7f22bcbb32" y="74.068286"/>
     <use style="fill:#0000ff;stroke:#0000ff;stroke-width:0.5;" x="214.658358" xlink:href="#m7f22bcbb32" y="135.038421"/>
     <use style="fill:#0000ff;stroke:#0000ff;stroke-width:0.5;" x="73.380688" xlink:href="#m7f22bcbb32" y="86.427097"/>
     <use style="fill:#0000ff;stroke:#0000ff;stroke-width:0.5;" x="75.576714" xlink:href="#m7f22bcbb32" y="54.294188"/>
     <use style="fill:#0000ff;stroke:#0000ff;stroke-width:0.5;" x="137.065441" xlink:href="#m7f22bcbb32" y="44.407139"/>
     <use style="fill:#0000ff;stroke:#0000ff;stroke-width:0.5;" x="74.112697" xlink:href="#m7f22bcbb32" y="102.081591"/>
     <use style="fill:#0000ff;stroke:#0000ff;stroke-width:0.5;" x="85.092827" xlink:href="#m7f22bcbb32" y="149.868995"/>
     <use style="fill:#0000ff;stroke:#0000ff;stroke-width:0.5;" x="346.419916" xlink:href="#m7f22bcbb32" y="194.360715"/>
     <use style="fill:#0000ff;stroke:#0000ff;stroke-width:0.5;" x="350.079959" xlink:href="#m7f22bcbb32" y="177.05838"/>
     <use style="fill:#0000ff;stroke:#0000ff;stroke-width:0.5;" x="79.236757" xlink:href="#m7f22bcbb32" y="77.363969"/>
     <use style="fill:#0000ff;stroke:#0000ff;stroke-width:0.5;" x="351.543976" xlink:href="#m7f22bcbb32" y="246.267722"/>
     <use style="fill:#0000ff;stroke:#0000ff;stroke-width:0.5;" x="69.720645" xlink:href="#m7f22bcbb32" y="40.287535"/>
     <use style="fill:#0000ff;stroke:#0000ff;stroke-width:0.5;" x="71.916671" xlink:href="#m7f22bcbb32" y="90.546701"/>
     <use style="fill:#0000ff;stroke:#0000ff;stroke-width:0.5;" x="80.700775" xlink:href="#m7f22bcbb32" y="60.061633"/>
     <use style="fill:#0000ff;stroke:#0000ff;stroke-width:0.5;" x="492.821646" xlink:href="#m7f22bcbb32" y="239.676356"/>
     <use style="fill:#0000ff;stroke:#0000ff;stroke-width:0.5;" x="161.953735" xlink:href="#m7f22bcbb32" y="253.683009"/>
     <use style="fill:#0000ff;stroke:#0000ff;stroke-width:0.5;" x="79.968766" xlink:href="#m7f22bcbb32" y="38.639694"/>
     <use style="fill:#0000ff;stroke:#0000ff;stroke-width:0.5;" x="145.849545" xlink:href="#m7f22bcbb32" y="94.666305"/>
     <use style="fill:#0000ff;stroke:#0000ff;stroke-width:0.5;" x="326.655682" xlink:href="#m7f22bcbb32" y="151.516836"/>
     <use style="fill:#0000ff;stroke:#0000ff;stroke-width:0.5;" x="152.437623" xlink:href="#m7f22bcbb32" y="137.510184"/>
     <use style="fill:#0000ff;stroke:#0000ff;stroke-width:0.5;" x="246.866739" xlink:href="#m7f22bcbb32" y="327.011956"/>
     <use style="fill:#0000ff;stroke:#0000ff;stroke-width:0.5;" x="116.569199" xlink:href="#m7f22bcbb32" y="38.639694"/>
     <use style="fill:#0000ff;stroke:#0000ff;stroke-width:0.5;" x="83.628809" xlink:href="#m7f22bcbb32" y="32.048328"/>
     <use style="fill:#0000ff;stroke:#0000ff;stroke-width:0.5;" x="246.866739" xlink:href="#m7f22bcbb32" y="134.214501"/>
     <use style="fill:#0000ff;stroke:#0000ff;stroke-width:0.5;" x="381.556331" xlink:href="#m7f22bcbb32" y="214.958734"/>
     <use style="fill:#0000ff;stroke:#0000ff;stroke-width:0.5;" x="84.360818" xlink:href="#m7f22bcbb32" y="96.314146"/>
     <use style="fill:#0000ff;stroke:#0000ff;stroke-width:0.5;" x="333.24376" xlink:href="#m7f22bcbb32" y="212.486972"/>
     <use style="fill:#0000ff;stroke:#0000ff;stroke-width:0.5;" x="107.785095" xlink:href="#m7f22bcbb32" y="119.383927"/>
     <use style="fill:#0000ff;stroke:#0000ff;stroke-width:0.5;" x="125.353303" xlink:href="#m7f22bcbb32" y="76.540048"/>
     <use style="fill:#0000ff;stroke:#0000ff;stroke-width:0.5;" x="133.405398" xlink:href="#m7f22bcbb32" y="88.074939"/>
     <use style="fill:#0000ff;stroke:#0000ff;stroke-width:0.5;" x="440.117023" xlink:href="#m7f22bcbb32" y="235.556753"/>
     <use style="fill:#0000ff;stroke:#0000ff;stroke-width:0.5;" x="77.040731" xlink:href="#m7f22bcbb32" y="144.92547"/>
     <use style="fill:#0000ff;stroke:#0000ff;stroke-width:0.5;" x="112.909155" xlink:href="#m7f22bcbb32" y="51.822426"/>
     <use style="fill:#0000ff;stroke:#0000ff;stroke-width:0.5;" x="127.549329" xlink:href="#m7f22bcbb32" y="62.533395"/>
     <use style="fill:#0000ff;stroke:#0000ff;stroke-width:0.5;" x="130.477363" xlink:href="#m7f22bcbb32" y="80.659652"/>
     <use style="fill:#0000ff;stroke:#0000ff;stroke-width:0.5;" x="156.097666" xlink:href="#m7f22bcbb32" y="140.805867"/>
     <use style="fill:#0000ff;stroke:#0000ff;stroke-width:0.5;" x="112.177147" xlink:href="#m7f22bcbb32" y="85.603176"/>
     <use style="fill:#0000ff;stroke:#0000ff;stroke-width:0.5;" x="406.444625" xlink:href="#m7f22bcbb32" y="278.400632"/>
     <use style="fill:#0000ff;stroke:#0000ff;stroke-width:0.5;" x="257.846869" xlink:href="#m7f22bcbb32" y="303.118254"/>
    </g>
   </g>
   <g id="line2d_31">
    <path clip-path="url(#p53877a6aad)" d="M 69.720645 70.203698 
L 79.147124 74.91869 
L 88.573602 79.633681 
L 98.000081 84.348673 
L 107.42656 89.063665 
L 116.853039 93.778657 
L 126.279518 98.493649 
L 135.705996 103.208641 
L 145.132475 107.923632 
L 154.558954 112.638624 
L 163.985433 117.353616 
L 173.411911 122.068608 
L 182.83839 126.7836 
L 192.264869 131.498591 
L 201.691348 136.213583 
L 211.117827 140.928575 
L 220.544305 145.643567 
L 229.970784 150.358559 
L 239.397263 155.073551 
L 248.823742 159.788542 
L 258.25022 164.503534 
L 267.676699 169.218526 
L 277.103178 173.933518 
L 286.529657 178.64851 
L 295.956136 183.363502 
L 305.382614 188.078493 
L 314.809093 192.793485 
L 324.235572 197.508477 
L 333.662051 202.223469 
L 343.08853 206.938461 
L 352.515008 211.653452 
L 361.941487 216.368444 
L 371.367966 221.083436 
L 380.794445 225.798428 
L 390.220923 230.51342 
L 399.647402 235.228412 
L 409.073881 239.943403 
L 418.50036 244.658395 
L 427.926839 249.373387 
L 437.353317 254.088379 
L 446.779796 258.803371 
L 456.206275 263.518362 
L 465.632754 268.233354 
L 475.059232 272.948346 
L 484.485711 277.663338 
L 493.91219 282.37833 
L 503.338669 287.093322 
L 512.765148 291.808313 
L 522.191626 296.523305 
L 531.618105 301.238297 
" style="fill:none;stroke:#000000;stroke-linecap:square;stroke-width:3;"/>
   </g>
   <g id="patch_3">
    <path d="M 46.13875 349.908125 
L 46.13875 10.8 
" style="fill:none;stroke:#ffffff;stroke-linecap:square;stroke-linejoin:miter;"/>
   </g>
   <g id="patch_4">
    <path d="M 555.2 349.908125 
L 555.2 10.8 
" style="fill:none;stroke:#ffffff;stroke-linecap:square;stroke-linejoin:miter;"/>
   </g>
   <g id="patch_5">
    <path d="M 46.13875 349.908125 
L 555.2 349.908125 
" style="fill:none;stroke:#ffffff;stroke-linecap:square;stroke-linejoin:miter;"/>
   </g>
   <g id="patch_6">
    <path d="M 46.13875 10.8 
L 555.2 10.8 
" style="fill:none;stroke:#ffffff;stroke-linecap:square;stroke-linejoin:miter;"/>
   </g>
  </g>
 </g>
 <defs>
  <clipPath id="p53877a6aad">
   <rect height="339.108125" width="509.06125" x="46.13875" y="10.8"/>
  </clipPath>
 </defs>
</svg>
